<?xml version="1.0" standalone="no"?>
<!DOCTYPE svg PUBLIC "-//W3C//DTD SVG 20010904//EN"
 "http://www.w3.org/TR/2001/REC-SVG-20010904/DTD/svg10.dtd">
<svg version="1.0" xmlns="http://www.w3.org/2000/svg"
 width="1536.000000pt" height="1024.000000pt" viewBox="0 0 1536.000000 1024.000000"
 preserveAspectRatio="xMidYMid meet">

<g transform="translate(0.000000,1024.000000) scale(0.100000,-0.100000)"
fill="#000000" stroke="none">
<path d="M7505 8034 c-33 -7 -202 -43 -375 -79 -173 -37 -358 -77 -410 -90
-92 -23 -95 -24 -115 -6 -47 43 -103 53 -153 27 -49 -25 -63 -49 -65 -112 -2
-56 -3 -59 -47 -92 -25 -19 -99 -80 -165 -136 -502 -427 -677 -576 -723 -618
-45 -41 -57 -46 -73 -37 -27 14 -76 2 -94 -24 -18 -26 -20 -80 -3 -107 10 -15
9 -34 -5 -92 -10 -40 -47 -208 -83 -373 -35 -165 -89 -410 -119 -545 -30 -135
-69 -314 -87 -398 -24 -115 -35 -151 -46 -147 -20 7 -77 -20 -96 -46 -9 -13
-16 -41 -16 -62 0 -50 41 -94 98 -103 l40 -6 83 -207 c115 -288 243 -568 444
-976 170 -344 172 -351 167 -403 -4 -41 -1 -57 13 -72 23 -25 76 -35 105 -20
17 9 26 8 45 -4 12 -8 119 -66 236 -129 118 -63 239 -128 269 -145 30 -17 120
-64 200 -105 143 -75 144 -76 155 -118 12 -52 47 -80 106 -86 43 -4 54 0 120
48 13 10 76 -3 310 -60 162 -40 346 -84 409 -97 l115 -24 255 71 c140 39 315
88 388 110 l134 39 19 -24 c24 -30 81 -50 117 -41 39 9 71 43 78 82 4 19 12
36 18 38 46 14 532 183 576 201 38 15 60 19 72 13 29 -15 74 -10 103 13 25 19
27 26 22 67 l-6 47 205 264 c112 146 274 357 359 470 85 113 159 210 164 216
6 7 27 10 54 7 49 -6 100 14 117 46 5 11 10 38 10 61 0 33 -6 48 -29 71 -16
16 -37 29 -45 29 -21 0 -22 -15 19 371 32 309 35 357 34 644 0 171 -4 370 -8
443 -8 171 -5 212 19 212 10 0 30 14 44 31 37 43 35 91 -4 131 -28 27 -35 30
-87 26 l-57 -3 -67 95 c-38 52 -217 304 -399 560 -322 452 -331 466 -326 503
7 39 -5 73 -33 94 -22 17 -82 16 -107 -2 -19 -13 -26 -12 -70 10 -63 32 -318
153 -551 262 -100 46 -187 82 -193 78 -6 -4 -10 4 -10 19 0 45 -19 76 -55 91
-49 21 -79 19 -113 -10 l-30 -25 -314 65 c-172 36 -332 70 -355 75 -55 13
-114 11 -188 -6z m340 -58 c94 -20 238 -50 320 -67 83 -17 151 -32 153 -33 1
-2 -116 -6 -260 -9 -145 -4 -422 -14 -616 -22 -561 -23 -765 -27 -717 -13 22
7 220 51 440 99 301 66 414 87 455 84 30 -1 132 -19 225 -39z m513 -154 c-3
-17 -149 -152 -566 -525 -78 -70 -146 -127 -150 -127 -4 1 -18 7 -32 15 -34
19 -100 19 -129 -1 -21 -15 -25 -15 -49 3 -122 89 -742 519 -768 531 -19 10
-34 22 -34 27 0 32 19 34 360 46 190 6 548 19 795 29 619 24 577 24 573 2z
m547 -181 c477 -223 435 -200 435 -238 0 -38 37 -83 68 -83 16 0 24 -24 56
-177 20 -98 55 -262 77 -366 22 -103 37 -192 34 -197 -3 -6 -12 -10 -20 -10
-19 0 -259 288 -750 900 -103 129 -206 254 -227 278 -21 23 -36 46 -33 51 3 5
31 -3 63 -19 31 -15 165 -78 297 -139z m-440 119 l60 -5 85 -106 c361 -451
655 -809 829 -1012 46 -54 81 -100 79 -103 -3 -3 -82 18 -174 47 -93 28 -504
152 -913 275 -409 123 -745 225 -747 226 -1 2 -4 16 -6 31 -3 25 31 58 352
347 195 175 359 315 365 312 5 -4 37 -9 70 -12z m-1735 -130 c52 -37 229 -160
392 -274 164 -114 299 -210 301 -214 2 -4 2 -28 -1 -53 -3 -42 -6 -47 -40 -58
-55 -20 -313 -125 -717 -294 -198 -82 -425 -176 -505 -209 -331 -136 -436
-181 -448 -191 -9 -7 -17 -6 -29 6 -14 14 11 60 287 529 479 811 474 803 490
799 41 -10 100 -3 126 16 16 12 33 19 39 15 5 -3 53 -36 105 -72z m-338 33
c-11 -16 -90 -149 -177 -298 -87 -148 -249 -423 -360 -610 -111 -187 -207
-349 -213 -361 -8 -16 -18 -19 -45 -16 -19 2 -44 -1 -55 -7 -19 -10 -24 0 -84
178 -62 187 -63 190 -45 212 12 15 17 36 16 59 -3 36 1 40 156 176 311 272
811 693 823 694 2 0 -5 -12 -16 -27z m3295 -620 c109 -153 277 -388 373 -523
95 -135 186 -260 202 -278 36 -42 35 -45 -4 -29 -124 53 -271 113 -378 155
l-124 50 3 43 c3 64 -29 109 -94 131 l-50 16 -13 69 c-10 52 -100 482 -130
621 -2 12 0 22 5 22 6 0 100 -125 210 -277z m-1887 -36 c58 -19 463 -141 902
-272 l796 -239 6 -37 c3 -20 14 -47 25 -60 19 -23 19 -24 0 -62 -11 -21 -94
-214 -184 -430 -284 -681 -256 -621 -295 -628 -19 -3 -45 -9 -56 -13 -17 -5
-25 0 -40 21 -10 15 -151 203 -314 418 -163 214 -300 396 -304 403 -12 19 48
7 167 -35 54 -19 100 -33 102 -32 4 5 105 442 105 456 0 16 -129 67 -269 108
-135 39 -281 62 -455 73 l-120 7 -62 90 c-166 239 -156 222 -142 244 7 12 17
21 23 21 6 0 57 -15 115 -33z m-337 -18 c8 -13 -7 -60 -64 -200 -40 -101 -74
-185 -75 -187 -1 -2 -44 -19 -95 -38 -430 -159 -740 -551 -802 -1015 l-12 -92
-355 362 c-237 242 -354 368 -351 379 2 9 5 38 8 63 4 42 8 47 41 59 36 13
474 193 702 290 111 47 260 109 670 278 285 118 294 121 309 119 8 -1 18 -9
24 -18z m258 -165 l97 -139 -117 -12 c-110 -12 -273 -42 -315 -59 -15 -6 -18
-4 -14 7 4 8 36 86 72 174 l65 160 48 6 c26 3 52 5 58 4 5 -1 53 -64 106 -141z
m-2301 -281 c55 -169 60 -192 51 -224 -15 -51 -14 -101 4 -126 14 -20 7 -36
-111 -255 -70 -128 -167 -307 -217 -398 -50 -91 -102 -185 -115 -210 -19 -37
-22 -40 -17 -15 4 17 46 210 95 430 117 528 186 846 201 923 10 47 17 62 30
62 14 0 31 -39 79 -187z m4608 -274 c122 -49 229 -89 237 -89 10 0 14 -12 13
-40 0 -46 22 -85 53 -95 25 -8 25 -5 -17 -460 -28 -308 -35 -350 -52 -350 -7
0 -132 245 -278 544 -145 300 -269 550 -276 558 -8 10 -6 18 7 33 16 18 20 18
54 4 20 -9 136 -56 259 -105z m-381 76 c11 3 40 -49 108 -188 51 -105 176
-365 279 -576 102 -210 186 -390 186 -398 0 -13 -65 -14 -515 -11 l-515 3 -11
28 c-7 16 -22 35 -35 43 l-23 15 45 107 c25 59 120 285 211 502 91 217 174
416 185 442 19 44 21 46 46 37 14 -5 32 -7 39 -4z m-1484 -191 c48 -9 96 -24
106 -33 16 -13 225 -287 602 -786 l76 -100 -15 -33 c-15 -31 -17 -32 -84 -32
l-68 0 0 113 0 114 -352 6 c-194 4 -433 7 -530 7 l-178 0 0 -120 0 -120 -314
0 -314 0 -7 83 c-8 100 8 266 36 367 39 143 130 287 232 370 204 165 485 222
810 164z m-1753 -869 c0 -66 7 -169 15 -230 l15 -110 -27 -24 c-16 -13 -180
-163 -365 -332 -290 -266 -341 -309 -368 -309 -17 0 -32 6 -35 13 -6 18 -23
524 -40 1152 -8 303 -16 581 -17 619 l-3 69 30 4 c17 2 35 9 40 15 7 7 129
-111 382 -368 l373 -379 0 -120z m-864 823 c1 -13 7 -248 13 -523 7 -275 18
-660 26 -855 19 -460 19 -450 -2 -450 -12 0 -66 67 -148 182 -71 100 -193 267
-269 372 -137 187 -139 190 -127 222 13 35 7 77 -15 109 -8 11 -14 24 -14 30
0 6 59 119 131 251 72 131 167 307 211 389 170 318 170 317 181 306 5 -5 11
-21 13 -33z m4833 -775 l1 -111 -31 11 -31 12 7 80 c5 67 31 338 37 394 3 26
15 -264 17 -386z m-2659 -293 l0 -90 240 0 240 0 0 -259 c0 -213 -2 -260 -14
-264 -44 -17 -192 -29 -304 -24 -406 16 -685 249 -772 644 l-18 82 22 3 c11 2
153 2 314 0 l292 -3 0 -89z m1212 49 l18 -42 -72 -81 c-40 -44 -78 -88 -85
-96 -11 -12 -13 9 -13 123 l0 137 68 0 67 0 17 -41z m1292 25 c6 -14 -134
-305 -274 -569 -20 -38 -94 -184 -165 -322 -118 -235 -129 -253 -154 -253 -22
0 -29 8 -45 48 -17 41 -335 734 -431 939 l-33 72 23 15 c13 9 29 31 36 51 l13
35 512 0 c463 0 512 -2 518 -16z m123 -299 l-24 -240 -6 140 c-4 77 -9 185
-12 240 l-5 101 32 9 c22 7 34 7 35 0 2 -5 -8 -118 -20 -250z m-67 -110 c6
-154 13 -292 16 -307 5 -23 1 -30 -18 -37 -43 -16 -63 -49 -63 -104 l0 -51
-110 -64 c-60 -35 -150 -88 -200 -117 -183 -107 -172 -102 -191 -83 -15 15 2
52 248 540 145 287 273 536 284 553 l19 29 2 -39 c1 -22 7 -166 13 -320z
m-1190 306 c0 -7 116 -261 390 -856 l88 -190 -30 -25 c-21 -18 -31 -38 -35
-68 -4 -33 -10 -43 -27 -47 -38 -7 -299 -66 -426 -96 -348 -81 -490 -113 -655
-149 -99 -22 -268 -60 -375 -84 -107 -25 -202 -46 -210 -46 -8 0 -24 14 -35
32 l-21 31 143 192 143 191 117 12 c209 22 408 74 574 148 l61 28 -6 360 -7
361 104 110 104 110 52 -3 c28 -2 51 -7 51 -11z m-3946 -209 c51 -70 142 -197
203 -282 61 -85 129 -179 151 -208 38 -50 39 -55 26 -80 -8 -15 -14 -44 -14
-65 0 -31 7 -46 34 -73 19 -19 41 -34 49 -34 10 0 17 -16 21 -52 4 -29 26
-162 50 -295 23 -134 41 -243 40 -243 -7 0 -348 700 -466 955 -64 140 -228
541 -228 559 0 6 9 -4 20 -22 12 -19 63 -91 114 -160z m1321 61 c11 -65 79
-225 131 -312 92 -156 235 -307 385 -409 66 -45 255 -137 311 -152 26 -7 52
-18 56 -24 5 -6 58 -105 117 -221 59 -115 111 -215 116 -221 6 -7 2 -17 -10
-28 -17 -16 -39 -9 -412 124 -459 165 -499 179 -929 339 -511 189 -470 171
-470 208 0 18 -5 43 -11 56 -10 23 -6 30 62 94 181 171 633 583 639 583 4 0
11 -17 15 -37z m3727 -715 c-5 -7 -51 -69 -103 -138 -51 -69 -189 -250 -307
-403 -117 -153 -232 -304 -254 -335 -40 -56 -40 -56 -34 -22 3 19 32 136 64
259 58 224 58 224 87 227 60 6 105 60 105 127 0 20 3 37 8 37 4 0 104 58 222
129 118 72 217 130 219 130 2 1 -1 -5 -7 -11z m-4360 -82 c84 -35 448 -170
678 -253 69 -25 175 -63 235 -85 179 -65 655 -233 728 -257 60 -20 67 -25 67
-49 0 -15 3 -36 6 -47 6 -22 -8 -32 -468 -352 l-177 -123 -33 20 c-35 21 -97
26 -127 11 -24 -13 -48 13 -433 459 -537 623 -606 710 -568 710 5 0 47 -15 92
-34z m-110 -48 c32 -41 340 -402 668 -783 85 -99 188 -215 229 -257 126 -133
132 -136 -456 185 l-333 181 0 36 c0 45 -22 77 -60 85 -19 4 -30 13 -30 24 0
10 -20 132 -45 272 -25 140 -45 264 -45 277 0 36 35 27 72 -20z m1773 -83 c99
-22 242 -37 372 -39 68 0 123 -2 123 -3 0 -1 -61 -82 -136 -180 l-135 -177
-52 0 -52 1 -107 204 c-59 112 -107 208 -107 213 -1 4 7 5 17 1 9 -3 44 -12
77 -20z m2025 -160 c11 -13 -27 -56 -256 -288 -148 -149 -332 -336 -409 -415
-124 -126 -143 -142 -165 -137 -62 16 -89 16 -117 2 -29 -15 -32 -15 -119 37
-101 60 -658 389 -661 391 -1 0 0 11 3 23 5 15 17 23 43 28 65 12 1024 229
1341 304 330 78 322 76 340 55z m50 -51 c0 -17 -118 -473 -126 -485 -3 -5 -12
-9 -20 -9 -28 0 -64 -47 -64 -83 0 -33 -2 -34 -77 -61 -208 -75 -529 -186
-536 -186 -5 0 173 185 395 411 221 225 405 414 406 420 6 15 22 10 22 -7z
m-1774 -403 c11 -11 573 -344 662 -392 48 -26 62 -39 60 -54 -3 -19 -13 -20
-213 -26 -115 -3 -474 -10 -796 -14 -502 -6 -587 -5 -592 7 -3 10 53 55 179
144 102 71 250 175 330 232 l146 104 39 -16 c52 -21 87 -20 124 3 34 22 47 25
61 12z m529 -537 c-49 -14 -198 -55 -329 -91 -131 -36 -251 -66 -267 -65 -25
1 -517 115 -634 147 l-50 14 60 2 c84 3 924 15 1135 16 l175 2 -90 -25z"/>
<path d="M10020 7975 c13 -14 26 -25 28 -25 3 0 -5 11 -18 25 -13 14 -26 25
-28 25 -3 0 5 -11 18 -25z"/>
<path d="M10110 7895 c13 -14 26 -25 28 -25 3 0 -5 11 -18 25 -13 14 -26 25
-28 25 -3 0 5 -11 18 -25z"/>
<path d="M5169 7823 c-13 -16 -12 -17 4 -4 9 7 17 15 17 17 0 8 -8 3 -21 -13z"/>
<path d="M4989 7633 l-24 -28 28 24 c25 23 32 31 24 31 -2 0 -14 -12 -28 -27z"/>
<path d="M10390 7616 c0 -2 8 -10 18 -17 15 -13 16 -12 3 4 -13 16 -21 21 -21
13z"/>
<path d="M4919 7553 c-13 -16 -12 -17 4 -4 16 13 21 21 13 21 -2 0 -10 -8 -17
-17z"/>
<path d="M4810 3306 c0 -2 8 -10 18 -17 15 -13 16 -12 3 4 -13 16 -21 21 -21
13z"/>
<path d="M4850 3256 c0 -2 8 -10 18 -17 15 -13 16 -12 3 4 -13 16 -21 21 -21
13z"/>
<path d="M10379 3093 c-13 -16 -12 -17 4 -4 9 7 17 15 17 17 0 8 -8 3 -21 -13z"/>
<path d="M10309 3013 c-13 -16 -12 -17 4 -4 16 13 21 21 13 21 -2 0 -10 -8
-17 -17z"/>
<path d="M5125 2950 c38 -38 72 -70 74 -70 3 0 -26 32 -64 70 -38 39 -72 70
-74 70 -3 0 26 -31 64 -70z"/>
<path d="M10219 2923 l-24 -28 28 24 c15 14 27 26 27 28 0 8 -8 1 -31 -24z"/>
<path d="M10104 2818 l-19 -23 23 19 c12 11 22 21 22 23 0 8 -8 2 -26 -19z"/>
<path d="M5280 2806 c0 -2 8 -10 18 -17 15 -13 16 -12 3 4 -13 16 -21 21 -21
13z"/>
<path d="M7308 1903 c7 -3 16 -2 19 1 4 3 -2 6 -13 5 -11 0 -14 -3 -6 -6z"/>
</g>
</svg>
